<?xml version="1.0" encoding="UTF-8"?>
<svg id="uuid-9b226d97-771b-416d-9692-14eee2c3d83b" data-name="Layer 1" xmlns="http://www.w3.org/2000/svg" viewBox="0 50 512 512">
  <rect y="0" x="0" width="512" height="562" style="stroke-width: 0px;"/>
  <g>
    <path d="M192.57,435.7c-1.6-.23-5.3-.63-11.11-1.2-5.81-.57-9.97-1.25-12.48-2.05-2.51-.8-6.15-1.88-10.94-3.25-1.37-.46-2.34-.8-2.91-1.03-.57-.23-1.31-.51-2.22-.85-.91-.34-1.6-.57-2.05-.68-.46-.12-1.25-.46-2.39-1.03-1.14-.57-2.11-1.08-2.91-1.54-.8-.46-2.22-1.25-4.27-2.39l-9.57-5.13-8.89-7.18-8.54-7.18-7.18-8.54-7.18-8.89-5.13-9.57c-2.73-5.24-4.5-8.89-5.3-10.94-.8-2.05-2.45-7.07-4.96-15.04-1.14-3.88-2.16-9.69-3.08-17.43l-1.03-10.6,1.03-9.23c.68-6.61,1.2-10.83,1.54-12.65.34-1.83,1.08-4.9,2.22-9.23,1.83-5.47,2.96-9,3.42-10.6,0-.46.29-1.25.85-2.39.57-1.14,1.31-2.62,2.22-4.44.91-1.83,1.94-3.76,3.08-5.81,3.65-6.84,6.84-11.9,9.57-15.21,2.73-3.3,5.01-6.09,6.84-8.37,1.83-2.27,5.47-5.64,10.94-10.08s8.66-7.01,9.57-7.69c.91-.68,4.44-2.62,10.6-5.81l8.89-4.79,10.94-3.42,10.6-3.08,11.28-1.37c9.34-.91,15.6-.8,18.8.34,5.69,1.83,9.91,5.24,12.65,10.25,3.87,7.07,3.98,14.13.34,21.19-2.73,5.93-7.3,9.8-13.67,11.62-1.14.46-4.84,1.03-11.11,1.71-6.27.68-11.34,1.6-15.21,2.73-3.88,1.14-7.86,2.73-11.96,4.79s-8.03,4.67-11.79,7.86c-3.76,3.19-7.01,6.44-9.74,9.74-2.73,3.3-5.24,7.01-7.52,11.11-2.28,4.1-4.05,8.2-5.3,12.3-1.25,4.1-2.05,7.69-2.39,10.77s-.57,5.47-.68,7.18c-.12,1.71-.17,2.79-.17,3.25,0,.22.05.68.17,1.37.11.68.22,1.48.34,2.39.11.91.17,1.93.17,3.08.45,4.1.8,6.49,1.03,7.18.22.68.91,2.79,2.05,6.32,1.14,3.53,2.79,7.29,4.96,11.28,2.16,3.98,4.61,7.69,7.35,11.11s5.92,6.61,9.57,9.57c3.64,2.96,7.52,5.47,11.62,7.52,2.5,1.37,4.5,2.39,5.98,3.08,1.48.68,3.47,1.37,5.98,2.05,4.33,1.37,8.77,2.28,13.33,2.73l6.84.68,6.84-.68c4.33-.46,7.18-.91,8.54-1.37,4.33-1.14,7.46-2.11,9.4-2.91,1.93-.8,4.27-1.88,7.01-3.25,4.1-2.28,7.74-4.79,10.94-7.52.91-.68,1.82-1.37,2.73-2.05.91-.68,1.59-1.25,2.05-1.71.45-.46.8-.68,1.03-.68.45-.46,2.05-2.39,4.79-5.81,1.82-2.05,3.19-3.76,4.1-5.13.91-1.37,1.93-3.31,3.08-5.81,2.28-4.1,4.21-8.66,5.81-13.67.91-3.42,1.71-8.2,2.39-14.36.68-7.52,1.82-12.76,3.42-15.72,1.14-1.83,2.56-3.54,4.27-5.13,1.71-1.6,3.59-2.91,5.64-3.93s4.21-1.71,6.49-2.05c2.28-.34,4.44-.4,6.49-.17,6.38,1.14,11.39,3.98,15.04,8.54,1.37,2.05,2.5,4.21,3.42,6.49,1.37,4.1,1.82,6.84,1.37,8.2,0,.22-.46,3.98-1.37,11.28l-1.03,10.6-3.08,10.94-3.42,10.94-4.44,7.86c-2.96,5.92-5.01,9.74-6.15,11.45-1.14,1.71-3.54,4.84-7.18,9.4l-6.84,8.2-8.54,6.84c-4.56,3.64-7.69,6.09-9.4,7.35-1.71,1.25-5.53,3.36-11.45,6.32l-7.86,4.44-10.94,3.08-10.94,3.42-9.91,1.03c-8.66.91-13.79,1.25-15.38,1.03Z" style="fill: #fff; stroke-width: 0px;"/>
    <path d="M376.11,435.36c-9.79-1.83-15.95-7.41-18.46-16.75-.22-1.6-.45-29.17-.68-82.71-.22-53.55-.22-95.82,0-126.81l.34-46.48,1.03-2.73c.68-2.05,1.77-4.04,3.25-5.98,1.48-1.93,3.19-3.59,5.13-4.96,1.94-1.37,4.05-2.39,6.32-3.08,4.79-1.37,9.23-1.37,13.33,0,4.79,1.6,8.54,4.22,11.28,7.86,1.37,1.6,2.39,3.25,3.08,4.96s1.25,3.59,1.71,5.64v251.22c-.68,4.56-2.39,8.66-5.13,12.3-2.28,2.73-5.47,4.84-9.57,6.32-4.1,1.48-7.97,1.88-11.62,1.2Z" style="fill: #fff; stroke-width: 0px;"/>
  </g>
</svg>