<?xml version="1.0" encoding="UTF-8"?>
<svg id="uuid-1f7fe17a-3142-4b0f-b629-347b9befeec6" data-name="logo" xmlns="http://www.w3.org/2000/svg" viewBox="0 0 240 47.5">
  <g>
    <path d="M9.61,37.35c-.14-.02-.45-.05-.95-.1s-.85-.11-1.07-.18c-.22-.07-.53-.16-.94-.28-.12-.04-.2-.07-.25-.09-.05-.02-.11-.04-.19-.07-.08-.03-.14-.05-.18-.06-.04,0-.11-.04-.21-.09-.1-.05-.18-.09-.25-.13-.07-.04-.19-.11-.37-.21l-.82-.44-.76-.62-.73-.62-.62-.73-.62-.76-.44-.82c-.23-.45-.39-.76-.45-.94-.07-.18-.21-.61-.42-1.29-.1-.33-.19-.83-.26-1.49l-.09-.91.09-.79c.06-.57.1-.93.13-1.08s.09-.42.19-.79c.16-.47.25-.77.29-.91,0-.04.02-.11.07-.21.05-.1.11-.22.19-.38.08-.16.17-.32.26-.5.31-.59.59-1.02.82-1.3.23-.28.43-.52.59-.72.16-.19.47-.48.94-.86s.74-.6.82-.66c.08-.06.38-.22.91-.5l.76-.41.94-.29.91-.26.97-.12c.8-.08,1.34-.07,1.61.03.49.16.85.45,1.08.88.33.61.34,1.21.03,1.82-.23.51-.63.84-1.17,1-.1.04-.42.09-.95.15-.54.06-.97.14-1.3.23-.33.1-.67.23-1.03.41s-.69.4-1.01.67c-.32.27-.6.55-.83.83-.23.28-.45.6-.64.95-.2.35-.35.7-.45,1.05-.11.35-.18.66-.21.92s-.05.47-.06.62c-.01.15-.01.24-.01.28,0,.02,0,.06.01.12,0,.06.02.13.03.21,0,.08.01.17.01.26.04.35.07.56.09.62.02.06.08.24.18.54.1.3.24.62.42.97.19.34.4.66.63.95s.51.57.82.82c.31.25.64.47,1,.64.21.12.39.21.51.26.13.06.3.12.51.18.37.12.75.2,1.14.23l.59.06.59-.06c.37-.04.62-.08.73-.12.37-.1.64-.18.81-.25.17-.07.37-.16.6-.28.35-.2.66-.41.94-.64.08-.06.16-.12.23-.18.08-.06.14-.11.18-.15.04-.04.07-.06.09-.06.04-.04.18-.21.41-.5.16-.18.27-.32.35-.44.08-.12.17-.28.26-.5.19-.35.36-.74.5-1.17.08-.29.15-.7.21-1.23.06-.64.16-1.09.29-1.35.1-.16.22-.3.37-.44s.31-.25.48-.34.36-.15.56-.18c.19-.03.38-.03.56-.01.55.1.98.34,1.29.73.12.18.21.36.29.56.12.35.16.59.12.7,0,.02-.04.34-.12.97l-.09.91-.26.94-.29.94-.38.67c-.25.51-.43.83-.53.98-.1.15-.3.42-.62.81l-.59.7-.73.59c-.39.31-.66.52-.81.63s-.47.29-.98.54l-.67.38-.94.26-.94.29-.85.09c-.74.08-1.18.11-1.32.09Z" style="fill: #18181b; stroke-width: 0px;"/>
    <path d="M33.41,37.35s-.11,0-.29-.03c-.19-.02-.4-.04-.63-.06l-.88-.09-.59-.18c-.64-.2-1.04-.32-1.19-.38s-.42-.2-.83-.41c-.2-.12-.38-.22-.56-.31s-.28-.15-.32-.19c-.1-.06-.38-.27-.85-.64l-.67-.59-.59-.7c-.39-.47-.6-.72-.64-.76,0-.02-.05-.12-.15-.29-.1-.18-.21-.38-.32-.62l-.44-.82-.29-.91-.26-.94-.12-.91c-.06-.62-.09-.97-.09-1.03,0-.04.01-.16.03-.35.02-.2.04-.41.06-.64l.09-.91.29-.94c.14-.45.23-.74.28-.86.05-.13.14-.32.28-.57.22-.41.37-.69.45-.85s.17-.29.23-.4c.07-.11.16-.23.28-.37.22-.25.42-.49.6-.72.19-.22.53-.54,1.04-.95l.76-.64.85-.44.85-.44.91-.29.91-.26.97-.12.97-.09.97.09,1,.12.73.21c.49.16.79.25.91.29.06.02.2.08.42.19.22.11.47.23.73.37.26.14.46.25.6.35.1.04.39.26.88.67l.73.59.56.7c.39.45.61.71.66.79.05.08.22.39.51.94.19.39.32.65.38.78.06.13.13.32.21.57.12.37.21.66.26.86s.1.35.12.43c0,.08.02.35.07.82.05.47.07.71.07.72s0,.08.03.22v.19c0,.09,0,.21-.01.35-.01.15-.03.33-.07.54-.06.59-.09.91-.1.97-.01.06-.1.39-.28,1s-.34,1.05-.5,1.35c-.08.12-.16.25-.25.41s-.16.29-.22.41c-.14.27-.35.59-.64.94-.12.16-.23.31-.35.45s-.21.25-.26.31c-.12.14-.25.27-.4.39s-.4.33-.75.62-.63.48-.83.59-.48.26-.83.46-.84.38-1.46.56l-.94.29-1,.09c-.25.04-.59.08-1,.12-.04-.02-.06-.03-.07-.03ZM35.21,33.16c.27-.08.47-.14.59-.19s.29-.13.53-.25c.23-.14.41-.24.51-.31.11-.07.26-.18.45-.34.29-.25.56-.53.81-.84.24-.3.46-.62.64-.95.19-.33.34-.69.45-1.07s.19-.76.23-1.14c.04-.38.04-.77,0-1.16-.02-.14-.03-.24-.04-.32-.01-.08-.02-.16-.04-.25-.02-.09-.04-.17-.06-.23-.02-.07-.05-.17-.09-.31-.12-.37-.26-.72-.44-1.05s-.39-.66-.64-.97c-.16-.2-.29-.34-.4-.44-.11-.1-.25-.23-.42-.41-.31-.23-.64-.44-.98-.63-.34-.19-.7-.34-1.07-.45l-.31-.09c-.07-.02-.15-.03-.23-.04-.09,0-.17-.02-.25-.03-.08,0-.19-.02-.32-.04-.29-.04-.49-.06-.59-.06s-.29.02-.59.06c-.41.04-.9.15-1.46.32-.16.06-.4.18-.73.35-.33.18-.64.39-.94.64-.2.14-.34.26-.44.37-.1.11-.22.25-.38.42-.25.31-.47.64-.66.98-.19.34-.29.57-.32.69s-.08.31-.16.57c-.08.26-.14.58-.18.95-.04.37-.04.74,0,1.11.04.37.12.75.23,1.14.08.27.14.46.18.57.04.11.13.28.26.51.12.21.21.38.29.5.08.12.19.27.35.47.25.29.53.56.82.8s.6.46.94.66c.18.08.31.14.4.19s.18.09.28.12c.1.03.23.07.41.13.39.12.77.19,1.14.22.37.03.74.03,1.11,0,.37-.03.74-.1,1.11-.22Z" style="fill: #18181b; stroke-width: 0px;"/>
    <path d="M56.25,37.26l-.91-.09-.94-.29-.94-.26-.85-.47-.82-.44-.76-.62-.73-.62-.62-.76-.64-.76-.44-.82c-.29-.57-.5-1.04-.62-1.42s-.21-.68-.28-.89c-.07-.21-.11-.39-.13-.53-.12-.9-.18-1.49-.18-1.79,0-.02.03-.34.09-.97l.12-.94.23-.76c.12-.43.2-.72.25-.86.05-.15.11-.29.18-.42.07-.14.19-.37.37-.7l.47-.85.59-.73.62-.73.67-.56c.47-.37.74-.59.82-.64.08-.06.38-.22.91-.5l.76-.41.94-.29.91-.26.97-.12.97-.09h2.96c1.97,0,2.96,0,2.96-.01s0-.62.03-1.83c.02-.9.03-1.44.04-1.63,0-.19.02-.33.04-.42.1-.29.26-.56.5-.79.29-.29.65-.47,1.07-.54.42-.07.82,0,1.19.19.23.12.43.27.6.47.17.2.3.43.4.7.04.12.06.85.06,2.2.04,3.52.04,6.72,0,9.61,0,1.54-.03,2.57-.09,3.08l-.09.73-.26.94c-.2.62-.39,1.13-.59,1.52-.23.41-.4.69-.48.85s-.18.29-.26.41-.25.32-.48.62l-.59.73-.7.56c-.45.39-.7.61-.76.64s-.36.21-.91.5c-.41.21-.68.35-.81.39-.13.05-.35.12-.66.22-.64.2-1.04.31-1.17.34-.14.03-.43.07-.88.13-.23.02-.45.04-.64.06-.2.02-.32.03-.38.03-.12,0-.48-.03-1.08-.09ZM57.88,33.36c.4-.04.78-.11,1.13-.22s.7-.25,1.04-.44c.34-.19.66-.4.97-.64.3-.24.58-.52.82-.82.24-.3.45-.62.63-.95.06-.12.11-.21.15-.29.04-.08.07-.16.1-.23l.09-.23c.03-.08.06-.18.1-.29.04-.14.07-.24.09-.31.02-.07.04-.15.06-.23.02-.09.03-.17.04-.25,0-.08.02-.19.04-.32.04-.37.04-.68,0-.94-.04-.53-.12-1-.23-1.41-.12-.35-.27-.7-.45-1.04-.19-.34-.4-.66-.64-.97-.24-.3-.51-.58-.81-.82-.29-.24-.62-.46-.97-.64s-.71-.33-1.07-.44c-.36-.11-.74-.18-1.13-.22-.39-.04-.77-.04-1.14,0-.18.02-.29.03-.35.03s-.13.01-.22.03c-.09.02-.15.03-.19.04-.04.01-.13.03-.26.07-.23.08-.4.14-.5.18-.14.04-.37.15-.7.32-.33.18-.65.39-.95.63-.3.24-.57.52-.81.82-.23.3-.45.62-.64.97-.2.34-.3.56-.32.66-.02.1-.07.29-.16.59s-.15.62-.19,1c-.04.37-.04.75,0,1.13.04.38.12.76.23,1.13.08.23.14.41.19.53.05.12.13.29.25.53.18.33.39.65.64.97.08.1.15.18.21.25s.12.13.19.19c.07.06.13.12.19.18s.14.13.23.21c.29.23.6.45.94.64.14.06.25.11.34.15s.19.08.29.13c.11.05.21.09.32.12.11.03.27.07.48.13.1.04.21.07.34.09.13.02.29.04.48.06.37.02.76,0,1.16-.03Z" style="fill: #18181b; stroke-width: 0px;"/>
    <path d="M80.77,37.35c-.18-.02-.33-.04-.47-.04-.14,0-.28-.02-.44-.04-.47-.06-.77-.1-.91-.13-.14-.03-.59-.16-1.35-.39-.16-.04-.29-.08-.41-.13s-.23-.1-.35-.16c-.04-.02-.08-.04-.13-.07-.05-.03-.1-.06-.16-.09l-.18-.09-.18-.09c-.06-.03-.12-.06-.18-.1-.31-.16-.5-.26-.56-.31s-.32-.26-.79-.63l-.7-.59-.62-.76-.62-.73-.44-.85c-.1-.16-.17-.27-.21-.34-.04-.07-.08-.16-.13-.26-.05-.11-.08-.18-.09-.21l-.06-.18c-.03-.09-.05-.16-.07-.21-.02-.05-.05-.14-.09-.28-.06-.18-.11-.35-.16-.53-.05-.18-.09-.3-.13-.38-.06-.2-.12-.62-.18-1.26l-.12-1,.12-.97.09-1,.29-.91.29-.91.44-.85c.29-.55.58-1,.86-1.35.28-.35.48-.6.6-.76.06-.06.13-.13.21-.21.08-.08.16-.15.23-.21.68-.57,1.09-.89,1.23-.98.14-.09.43-.26.88-.51l.82-.44.79-.23c.53-.16.83-.25.92-.28s.45-.08,1.1-.16l1-.09.97.09c.66.08,1.1.15,1.32.21.1.04.24.08.42.13.19.05.36.1.51.16.25.08.44.14.56.19.12.05.3.14.56.28.14.08.29.16.45.25.17.09.29.15.37.19.21.12.57.38,1.05.79l.76.62.62.73c.31.39.52.67.63.83.11.17.33.57.66,1.22.16.27.32.71.5,1.32l.29.91.09.88c.06.57.09.93.09,1.08,0,.02,0,.05-.01.09-.01.04-.01.08-.01.12s0,.08-.01.12c-.01.04-.02.08-.03.12-.01.04-.02.08-.03.12-.01.04-.02.07-.03.1-.01.03-.02.06-.03.1-.01.04-.02.07-.04.09-.1.21-.23.39-.4.54-.17.15-.35.26-.56.35s-.42.14-.66.16c-.18.02-1.12.03-2.83.03h-3.97c-1.07-.02-1.68-.05-1.82-.09-.63-.21-1.04-.62-1.26-1.2-.14-.43-.14-.85,0-1.26.06-.21.16-.41.29-.59.21-.31.53-.54.94-.67l.21-.09h2.99c.31-.02.62-.03.94-.03h1.48c.19,0,.38,0,.57-.03.02-.02-.1-.28-.35-.79-.2-.33-.42-.65-.66-.95-.24-.3-.52-.58-.82-.82-.3-.24-.63-.46-.97-.64-.34-.19-.69-.33-1.05-.44-.36-.11-.73-.18-1.1-.22-.16-.02-.34-.04-.56-.06-.02-.02-.1-.02-.23,0-.14.02-.34.04-.62.07-.27.03-.59.1-.94.21-.35.11-.7.25-1.04.42-.34.18-.66.39-.95.64-.08.06-.14.11-.18.15-.04.04-.08.08-.13.12-.05.04-.09.07-.13.1-.04.03-.08.07-.12.12-.04.05-.08.09-.12.13-.04.04-.08.09-.12.15-.29.35-.55.73-.76,1.14-.16.29-.29.61-.4.95-.11.34-.18.71-.22,1.1-.04.41-.04.78,0,1.11.04.45.13.88.26,1.29.1.31.24.64.42,1,.19.35.4.67.63.97s.5.56.81.8c.3.24.62.46.97.64.34.19.68.33,1.01.43.41.14.91.23,1.49.29.68.06,1.18.21,1.49.44.41.31.65.74.73,1.29.06.41-.02.81-.23,1.2-.27.49-.67.8-1.2.94-.31.08-.54.1-.67.06Z" style="fill: #18181b; stroke-width: 0px;"/>
    <path d="M96.42,37.32c-.84-.16-1.37-.63-1.58-1.44-.02-.14-.04-2.5-.06-7.09-.02-4.59-.02-8.21,0-10.87l.03-3.98.09-.23c.06-.18.15-.35.28-.51.13-.17.27-.31.44-.42.17-.12.35-.21.54-.26.41-.12.79-.12,1.14,0,.41.14.73.36.97.67.12.14.21.28.26.42s.11.31.15.48v21.53c-.06.39-.21.74-.44,1.05-.19.23-.47.41-.82.54s-.68.16-1,.1Z" style="fill: #18181b; stroke-width: 0px;"/>
    <path d="M112.35,37.35c-.18-.02-.33-.04-.47-.04s-.28-.02-.44-.04c-.47-.06-.77-.1-.91-.13s-.59-.16-1.35-.39c-.16-.04-.29-.08-.41-.13s-.23-.1-.35-.16c-.04-.02-.08-.04-.13-.07-.05-.03-.1-.06-.16-.09l-.18-.09c-.06-.03-.12-.06-.18-.09s-.12-.06-.18-.1c-.31-.16-.5-.26-.56-.31s-.32-.26-.79-.63l-.7-.59-.62-.76-.62-.73-.44-.85c-.1-.16-.17-.27-.21-.34-.04-.07-.08-.16-.13-.26-.05-.11-.08-.18-.09-.21l-.06-.18c-.03-.09-.05-.16-.07-.21-.02-.05-.05-.14-.09-.28-.06-.18-.11-.35-.16-.53-.05-.18-.09-.3-.13-.38-.06-.2-.12-.62-.18-1.26l-.12-1,.12-.97.09-1,.29-.91.29-.91.44-.85c.29-.55.58-1,.86-1.35.28-.35.48-.6.6-.76.06-.06.13-.13.21-.21.08-.08.16-.15.23-.21.68-.57,1.09-.89,1.23-.98.14-.09.43-.26.88-.51l.82-.44.79-.23c.53-.16.84-.25.92-.28s.45-.08,1.1-.16l1-.09.97.09c.66.08,1.1.15,1.32.21.1.04.24.08.43.13.19.05.36.1.51.16.25.08.44.14.56.19.12.05.3.14.56.28.14.08.29.16.46.25s.29.15.37.19c.21.12.57.38,1.05.79l.76.62.62.73c.31.39.52.67.63.83s.33.57.66,1.22c.16.27.32.71.5,1.32l.29.91.09.88c.06.57.09.93.09,1.08,0,.02,0,.05-.01.09s-.02.08-.02.12,0,.08-.01.12l-.03.12-.03.12s-.02.07-.03.1-.02.06-.03.1-.03.07-.04.09c-.1.21-.23.39-.39.54s-.35.26-.56.35-.43.14-.66.16c-.18.02-1.12.03-2.83.03h-3.97c-1.07-.02-1.68-.05-1.82-.09-.62-.21-1.04-.62-1.26-1.2-.14-.43-.14-.85,0-1.26.06-.21.16-.41.29-.59.21-.31.53-.54.94-.67l.21-.09h2.99c.31-.02.62-.03.94-.03h1.48c.19,0,.38,0,.57-.03.02-.02-.1-.28-.35-.79-.2-.33-.41-.65-.66-.95-.24-.3-.52-.58-.82-.82-.3-.24-.62-.46-.97-.64s-.69-.33-1.05-.44c-.36-.11-.73-.18-1.1-.22-.16-.02-.34-.04-.56-.06-.02-.02-.1-.02-.23,0-.14.02-.34.04-.62.07s-.59.1-.94.21c-.35.11-.7.25-1.04.42s-.66.39-.95.64c-.08.06-.14.11-.18.15-.04.04-.08.08-.13.12-.05.04-.09.07-.13.1s-.08.07-.12.12c-.04.05-.08.09-.12.13-.04.04-.08.09-.12.15-.29.35-.55.73-.76,1.14-.16.29-.29.61-.4.95-.11.34-.18.71-.22,1.1-.04.41-.04.78,0,1.11.04.45.13.88.26,1.29.1.31.24.64.42,1,.19.35.4.67.63.97.23.29.5.56.81.8s.62.46.97.64.68.33,1.01.43c.41.14.91.23,1.49.29.68.06,1.18.21,1.49.44.41.31.65.74.73,1.29.06.41-.02.81-.23,1.2-.27.49-.67.8-1.2.94-.31.08-.54.1-.67.06Z" style="fill: #18181b; stroke-width: 0px;"/>
    <path d="M136.99,37.35c-.88-.02-1.55-.05-2.02-.09-.21-.04-.36-.06-.42-.06s-.19-.03-.35-.07-.31-.09-.42-.12-.38-.1-.79-.22c-.16-.06-.27-.1-.35-.13s-.19-.08-.34-.15-.29-.14-.42-.21-.37-.19-.69-.37-.73-.46-1.22-.85l-.73-.62-.56-.67c-.37-.47-.58-.74-.63-.81s-.21-.36-.48-.86-.43-.81-.47-.89-.14-.4-.29-.95l-.26-.85-.09-.88c-.02-.23-.04-.46-.06-.67s-.03-.34-.03-.38c0-.14.03-.49.09-1.05l.09-.88.29-.91c.08-.25.15-.48.22-.69.07-.21.1-.32.1-.34.06-.1.21-.39.47-.88l.38-.73.59-.7c.16-.18.29-.34.41-.48s.19-.23.21-.25c.02-.04.15-.15.38-.34.23-.19.48-.39.73-.6.14-.12.26-.21.38-.29.12-.08.22-.15.32-.21.21-.12.5-.27.85-.45.35-.19.84-.38,1.46-.57l.94-.26.97-.12.97-.09.97.09.97.12.94.26c.62.2,1.04.35,1.26.47.1.06.23.13.4.22s.32.16.45.22c.33.18.74.47,1.23.88l.76.62.62.76.62.76.44.82.44.85.29.94.29.91.09.85.09.82v8.41l-.06.26c-.08.23-.2.46-.35.67-.21.29-.53.52-.94.67-.12.04-.63.07-1.55.09h-.06c-1.95.02-3.98.02-6.09,0ZM136.82,33.36c.35-.02.72-.09,1.1-.21s.74-.27,1.08-.46.66-.4.97-.66.57-.52.81-.81.44-.6.62-.95c.08-.12.13-.21.16-.28s.06-.15.1-.23.07-.17.09-.25.05-.18.09-.29c.12-.39.2-.77.23-1.14.02-.21.03-.37.04-.46s0-.18,0-.26-.02-.24-.04-.45c-.02-.27-.04-.46-.07-.57s-.08-.3-.16-.57c-.1-.37-.24-.72-.44-1.05-.12-.21-.21-.38-.29-.5s-.19-.26-.32-.44c-.25-.29-.53-.57-.83-.82-.3-.25-.62-.47-.95-.64s-.68-.32-1.05-.44c-.25-.08-.44-.13-.56-.16s-.31-.05-.59-.07c-.39-.04-.78-.04-1.17,0-.25.02-.44.04-.57.07s-.26.06-.4.1c-.08.02-.15.04-.21.06-.06.02-.12.04-.18.06-.06.02-.12.04-.18.06-.06.02-.12.04-.19.07s-.14.06-.22.1c-.08.04-.17.08-.26.12-.33.19-.64.41-.94.64s-.57.51-.82.82c-.25.31-.47.63-.64.94-.21.39-.35.7-.41.94-.02.1-.06.24-.12.44s-.11.49-.15.88l-.06.56.06.62c.04.41.11.79.22,1.13s.25.68.44,1.03.4.66.64.97.51.58.81.84l.48.35c.11.08.28.18.51.29.35.2.63.32.85.38.08.02.17.04.26.07s.18.05.23.07.2.04.41.07l.64.09c.21.03.34.04.38.02.06,0,.25-.02.59-.06Z" style="fill: #18181b; stroke-width: 0px;"/>
    <path d="M151.7,37.35c-.76-.12-1.29-.56-1.58-1.32-.04-.12-.07-1.16-.09-3.13v-.09c-.02-2.03-.02-4.78,0-8.23,0-2.5,0-4,.01-4.51,0-.51.03-.81.07-.91.1-.45.32-.8.67-1.05.2-.16.42-.26.67-.32l.23-.09h8.17l.97.09,1,.12.91.26c.45.14.74.23.86.28.13.05.31.14.54.28.33.18.62.32.85.44s.6.38,1.08.79l.76.62.59.73c.16.2.3.38.44.54.14.17.21.27.23.31.06.1.21.39.47.86.25.48.42.83.5,1.07.29.98.45,1.55.47,1.73.14,1.09.2,1.73.18,1.9-.04.27-.12.53-.25.76s-.29.43-.48.59c-.35.27-.76.41-1.23.41-.16,0-.3,0-.42-.03s-.25-.06-.37-.12-.24-.14-.38-.23c-.16-.12-.3-.27-.42-.47s-.22-.4-.28-.62c-.04-.14-.08-.45-.12-.92s-.12-.9-.23-1.27c-.04-.1-.07-.18-.09-.25s-.04-.13-.06-.19-.04-.12-.07-.18-.06-.12-.09-.19-.07-.15-.13-.25c-.12-.21-.21-.38-.29-.5s-.2-.27-.35-.47c-.25-.29-.53-.57-.82-.82-.2-.16-.35-.27-.47-.35-.12-.08-.29-.18-.53-.29-.35-.18-.69-.32-1.03-.44-.41-.12-.86-.19-1.35-.23-.25-.04-.59-.03-1,.03h-.15s-.08,0-.13.01c-.05.01-.09.02-.13.03-.04.01-.07.01-.1.01s-.06,0-.1.01c-.04.01-.07.02-.1.03-.03.01-.06.02-.1.03-.04.01-.08.02-.13.03-.05.01-.1.02-.16.04-.23.08-.41.14-.53.19-.12.05-.29.13-.53.25-.21.12-.38.21-.5.29-.12.08-.26.19-.44.35-.2.16-.34.28-.44.38-.1.1-.23.24-.41.44-.25.31-.47.64-.64.98s-.31.66-.41.95c-.12.43-.2.79-.23,1.08-.04.27-.06,1.62-.06,4.04-.02,3.26-.05,4.98-.09,5.16-.16.43-.39.76-.7,1-.21.16-.44.26-.67.32-.27.06-.54.07-.79.03Z" style="fill: #18181b; stroke-width: 0px;"/>
    <path d="M175.37,37.35c-.84-.14-1.38-.62-1.61-1.44l-.06-.26v-16.23l.06-.23c.2-.74.65-1.21,1.38-1.41l.23-.09h8.17l.97.09,1,.12.91.26.94.29.67.35c.49.27.8.45.94.53.14.08.32.22.56.41.25.22.49.41.7.59.12.1.23.21.35.34.12.13.3.35.56.66l.64.76.44.85.44.82.26.91.26.88.12,1,.12,1-.03,4.1c0,2.3,0,3.6-.01,3.9s-.08.56-.22.79c-.21.47-.57.78-1.05.94-.43.14-.86.15-1.29.03-.14-.06-.27-.13-.41-.22s-.26-.19-.37-.31-.2-.24-.28-.38-.14-.28-.18-.44-.07-1.61-.09-4.37v-.26c-.02-2.32-.04-3.72-.06-4.18s-.1-.9-.23-1.33v-.03c-.1-.31-.24-.64-.42-.98s-.41-.67-.66-.98c-.16-.2-.28-.34-.38-.44-.1-.1-.24-.22-.44-.38-.37-.31-.81-.6-1.32-.85-.49-.23-1.03-.39-1.61-.47-.53-.06-.81-.08-.85-.06-.02,0-.21.02-.59.06-.18.02-.31.03-.41.04-.1.01-.2.03-.29.06s-.23.06-.41.1c-.35.12-.7.27-1.04.45s-.67.4-.98.63c-.1.1-.18.17-.23.22-.06.05-.12.11-.19.18-.07.07-.13.13-.18.19l-.22.26c-.25.29-.47.62-.64.97s-.32.7-.44,1.05c-.14.45-.21.88-.23,1.29s-.03,1.73-.03,3.96c-.02,3.11-.06,4.75-.12,4.92-.21.7-.66,1.14-1.35,1.32-.27.06-.54.07-.79.03Z" style="fill: #18181b; stroke-width: 0px;"/>
  </g>
  <g>
    <path d="M213.13,37.53l-1.38-.15-1.05-.32c-.94-.27-1.49-.45-1.67-.51s-.53-.25-1.05-.54c-.64-.33-1.07-.56-1.26-.67-.23-.12-1-.71-2.29-1.79-.18-.16-.54-.57-1.1-1.25s-.86-1.05-.92-1.13-.31-.53-.76-1.35c-.23-.43-.38-.69-.42-.78s-.12-.25-.22-.5-.16-.41-.18-.5-.1-.35-.23-.78-.25-.79-.34-1.07c-.09-.28-.18-.9-.28-1.86l-.15-1.47.15-1.44.15-1.46.44-1.38.41-1.41.67-1.26c.04-.06.09-.15.15-.26.27-.51.47-.85.6-1.04.13-.19.42-.56.89-1.13.12-.14.21-.24.26-.32l.62-.76,1.11-.88c.14-.14.28-.26.42-.37.15-.11.27-.21.38-.29.11-.09.19-.16.26-.22.07-.06.11-.1.13-.12.08-.04.51-.26,1.29-.67l1.2-.64,1.32-.41c.12-.04.23-.07.35-.1s.22-.06.32-.09c.1-.03.19-.06.28-.09s.17-.05.23-.07c.07-.02.12-.03.16-.04.04,0,.07-.01.09-.01.06-.02.54-.07,1.45-.16s1.4-.13,1.48-.13c.94.02,1.69.38,2.26,1.08.64.82.82,1.73.51,2.72-.3,1-.95,1.64-1.95,1.93-.2.06-.65.12-1.36.19-.71.07-1.12.11-1.22.13-.1.02-.4.1-.89.25s-.97.34-1.42.57c-.27.16-.44.25-.51.29-.07.04-.18.1-.32.19s-.25.16-.31.21c-.06.05-.21.17-.44.37l-.64.53-.59.7-.56.7-.41.76-.41.76-.23.79-.26.82-.09.88-.09.88.09.88c.06.43.1.7.12.82.02.12.07.31.15.59.1.33.18.6.25.8.07.21.24.56.51,1.07l.41.76.5.64c.35.41.56.65.62.73.1.08.18.15.25.21.07.06.14.12.22.19.08.07.16.13.23.19.41.33.76.58,1.05.73s.56.3.79.42.62.27,1.17.43l.82.26,1.14.12c.78.08,1.27.15,1.46.21.29.08.57.21.83.39s.49.41.67.67c.19.26.32.54.4.84.25.78.19,1.53-.18,2.24-.37.71-.95,1.2-1.73,1.45-.35.1-.66.15-.91.15-.04,0-.53-.05-1.46-.15Z" style="fill: #15803d; stroke-width: 0px;"/>
    <path d="M224.14,37.65c-.35-.06-.69-.18-1.03-.35-.88-.47-1.39-1.22-1.52-2.26-.06-.47,0-.94.21-1.42s.48-.86.85-1.16c.45-.37.97-.59,1.55-.64l1.17-.12.91-.09.82-.26.82-.23.76-.44.76-.41.67-.53c.45-.37.74-.63.86-.79.13-.16.31-.38.56-.67.24-.29.5-.7.78-1.23l.41-.76.26-.85.23-.82.09-.91c.08-.59.11-.9.1-.94-.01-.04-.04-.31-.1-.82l-.09-.79-.23-.82-.26-.82-.41-.79c-.2-.37-.33-.62-.41-.73-.08-.12-.25-.33-.5-.64-.33-.41-.53-.64-.59-.7-.02-.04-.1-.12-.25-.23s-.31-.25-.48-.41c-.23-.19-.41-.33-.51-.4-.11-.07-.22-.14-.32-.21-.11-.07-.3-.17-.57-.31-.51-.27-.86-.44-1.05-.5-.7-.23-1.13-.37-1.29-.4-.16-.03-.44-.06-.85-.1-1.02-.1-1.62-.18-1.82-.23-.47-.14-.88-.38-1.23-.73s-.6-.75-.73-1.2c-.12-.41-.16-.8-.12-1.17.08-.6.3-1.13.66-1.57s.82-.75,1.36-.92c.31-.1.61-.15.88-.15.16-.02.78.04,1.88.18.16.02.36.04.62.06.27.02,1.07.23,2.4.64.04.02.1.04.18.06.41.12,1.07.42,1.99.91.18.1.31.18.41.23l.76.38,1.14.94,1.11.94.88,1.08c.1.12.19.23.29.34.1.11.19.21.26.31.08.1.14.18.19.25.05.07.09.12.13.16.04.04.06.07.06.09.02,0,.07.07.15.22.08.15.17.32.26.51.23.45.45.86.64,1.23.18.31.29.55.35.72.06.17.25.8.59,1.89l.21.73.15,1.46.15,1.44-.15,1.44-.15,1.46-.41,1.38-.41,1.41-.7,1.26-.67,1.29-.5.62c-.33.39-.63.76-.91,1.11l-.41.5-1.14.91-1.11.94-1.29.67-1.29.7-1.38.41-1.38.41-1.29.12c-1.11.12-1.77.17-1.96.15Z" style="fill: #15803d; stroke-width: 0px;"/>
  </g>
</svg>